# Blender v2.93.6 OBJ File: 'Rocks.blend1'
# www.blender.org
mtllib Rock4.mtl
o Icosphere.003
v 6.836402 -0.095253 -0.698994
v 7.122483 0.408697 0.405286
v 6.715135 0.402301 -0.007722
v 6.832500 0.432130 -0.441814
v 7.260996 0.519425 -0.428819
v 7.372188 0.465622 0.054274
v 7.024462 0.662171 -0.304540
v 6.919943 -0.098803 0.173497
v 6.974009 -0.098803 0.568549
v 7.501287 -0.085490 0.016010
v 7.243234 -0.098803 0.000000
v 6.532363 -0.159179 0.087508
v 6.527115 -0.098803 -0.395023
v 7.312367 -0.098803 -0.458608
v 7.546372 0.248357 -0.072260
v 7.112811 0.125165 0.525832
v 7.379473 0.208609 0.268135
v 6.586536 0.220247 0.344816
v 6.631851 0.268413 -0.485614
v 6.558833 0.321875 0.041016
v 7.186894 0.231794 -0.594602
v 7.195329 0.604180 0.106342
v 6.866040 0.465781 -0.070123
vt 0.727273 0.000000
vt 0.750000 0.118096
vt 0.659399 0.117562
vt 0.545455 0.000000
vt 0.613329 0.117562
vt 0.500000 0.078731
vt 0.681818 0.236191
vt 0.318798 0.157461
vt 0.363637 0.236191
vt 0.227273 0.236191
vt 0.136980 0.157461
vt 0.136365 0.236191
vt 0.045455 0.236191
vt 0.545455 0.236191
vt 0.500617 0.157461
vt 0.135748 0.314921
vt 0.317566 0.314921
vt 0.272728 0.393651
vt 0.000000 0.314921
vt 0.045455 0.393651
vt 0.681202 0.314921
vt 0.863021 0.314921
vt 0.818182 0.393651
vt 0.499384 0.314921
vt 0.613329 0.432483
vt 0.409092 0.393651
vt 0.477581 0.432483
vt 0.681818 0.393651
vt 0.136365 0.393651
vt 0.090910 0.472382
vt 0.818182 0.236191
vt 0.864253 0.157461
vt 0.954545 0.236191
vt 1.000000 0.157461
vt 0.863636 0.078731
vt 0.932126 0.039899
vt 0.363637 0.078731
vt 0.158784 0.039899
vt 0.227273 0.078731
vn 0.0068 -1.0000 -0.0047
vn -0.0021 -1.0000 -0.0039
vn -0.7009 0.0240 -0.7129
vn 0.8981 -0.0050 0.4398
vn -0.2531 0.3303 0.9093
vn -0.1452 0.4387 -0.8868
vn 0.8201 0.0781 -0.5669
vn 0.6138 0.5838 0.5314
vn -0.2801 0.9235 0.2620
vn -0.4035 0.9138 -0.0463
vn -0.0902 0.5648 -0.8203
vn 0.6065 0.7934 -0.0512
vn 0.4845 0.8712 -0.0785
vn -0.7712 0.6364 0.0120
vn -0.5089 0.7975 0.3242
vn -0.5224 0.7664 0.3738
vn 0.7475 0.6569 -0.0989
vn 0.8165 0.1156 -0.5656
vn -0.0786 0.5129 -0.8548
vn -0.1480 0.4208 -0.8950
vn -0.4731 0.8784 -0.0675
vn -0.3461 0.8791 0.3277
vn -0.2366 0.3870 0.8912
vn 0.6743 0.4835 0.5581
vn 0.8078 0.3904 0.4417
vn 0.4412 -0.1931 -0.8764
vn -0.6022 0.7816 -0.1628
vn -0.9593 0.2349 -0.1569
vn -0.9982 0.0567 0.0179
vn -0.3503 0.8782 0.3257
vn -0.9915 0.0654 0.1123
vn -0.6677 -0.3502 0.6569
vn 0.6165 0.2902 0.7319
vn 0.7083 -0.3189 0.6297
vn 0.6986 -0.2764 0.6600
vn 0.9091 -0.2168 -0.3558
vn -0.0069 -1.0000 -0.0010
vn 0.1795 -0.9759 -0.1241
vn 0.1586 -0.9871 -0.0217
vn 0.0510 -0.9987 0.0077
vn 0.0000 -1.0000 0.0000
vn 0.0500 -0.9985 0.0237
usemtl None
s off
f 8/1/1 13/2/1 1/3/1
f 8/4/2 1/5/2 11/6/2
f 1/3/3 13/2/3 19/7/3
f 10/8/4 15/9/4 17/10/4
f 9/11/5 16/12/5 18/13/5
f 1/3/6 19/7/6 21/14/6
f 14/15/7 21/14/7 15/9/7
f 2/16/8 6/17/8 22/18/8
f 3/19/9 2/16/9 23/20/9
f 4/21/10 3/22/10 23/23/10
f 5/24/11 4/21/11 7/25/11
f 6/17/12 5/24/12 22/26/12
f 22/26/13 5/24/13 7/27/13
f 7/25/14 4/21/14 23/28/14
f 23/20/15 22/29/15 7/30/15
f 23/20/16 2/16/16 22/29/16
f 15/9/17 5/24/17 6/17/17
f 15/9/18 21/14/18 5/24/18
f 21/14/19 4/21/19 5/24/19
f 21/14/20 19/7/20 4/21/20
f 20/31/21 3/22/21 4/21/21
f 18/13/22 2/16/22 3/19/22
f 18/13/23 16/12/23 2/16/23
f 17/10/24 6/17/24 2/16/24
f 17/10/25 15/9/25 6/17/25
f 14/15/26 1/3/26 21/14/26
f 19/7/27 20/31/27 4/21/27
f 19/7/28 13/2/28 20/31/28
f 13/2/29 12/32/29 20/31/29
f 20/31/30 18/33/30 3/22/30
f 20/31/31 12/32/31 18/33/31
f 12/32/32 9/34/32 18/33/32
f 16/12/33 17/10/33 2/16/33
f 16/12/34 9/11/34 17/10/34
f 9/11/35 10/8/35 17/10/35
f 10/8/36 14/15/36 15/9/36
f 11/6/37 1/5/37 14/15/37
f 13/35/38 8/36/38 12/32/38
f 8/36/39 9/34/39 12/32/39
f 10/8/40 11/37/40 14/15/40
f 8/38/41 11/39/41 9/11/41
f 11/39/42 10/8/42 9/11/42
