# Blender v2.93.6 OBJ File: 'Rocks.blend1'
# www.blender.org
mtllib Rocks.mtl
o Icosphere.001
v -3.535686 -0.179371 -1.050091
v -3.563942 0.553644 0.567557
v -4.079692 0.840679 0.055700
v -3.523511 0.776067 -0.816451
v -2.957367 0.661915 -0.780784
v -2.525500 0.860945 0.435993
v -3.160407 1.098732 -0.421002
v -3.378371 -0.186057 0.326713
v -3.276559 -0.186057 1.070637
v -2.283638 -0.160986 0.030149
v -2.769581 -0.186057 0.000000
v -4.291798 -0.186057 0.326714
v -4.118109 -0.186057 -0.743870
v -2.639394 -0.186057 -0.863608
v -2.198738 0.467683 -0.136074
v -3.418423 0.394711 0.982323
v -2.578373 0.554025 0.810675
v -4.006211 0.414748 0.649324
v -3.912664 0.296874 -1.014374
v -4.449958 0.559990 0.106184
v -2.964830 0.319824 -1.019390
v -2.958387 1.095680 0.173487
v -3.722517 1.090076 -0.035941
vt 0.727273 0.000000
vt 0.750000 0.118096
vt 0.659399 0.117562
vt 0.545455 0.000000
vt 0.613329 0.117562
vt 0.500000 0.078731
vt 0.681818 0.236191
vt 0.318798 0.157461
vt 0.363637 0.236191
vt 0.227273 0.236191
vt 0.136980 0.157461
vt 0.136365 0.236191
vt 0.045455 0.236191
vt 0.545455 0.236191
vt 0.500617 0.157461
vt 0.135748 0.314921
vt 0.317566 0.314921
vt 0.272728 0.393651
vt 0.000000 0.314921
vt 0.045455 0.393651
vt 0.681202 0.314921
vt 0.863021 0.314921
vt 0.818182 0.393651
vt 0.499384 0.314921
vt 0.613329 0.432483
vt 0.409092 0.393651
vt 0.477581 0.432483
vt 0.681818 0.393651
vt 0.136365 0.393651
vt 0.090910 0.472382
vt 0.818182 0.236191
vt 0.864253 0.157461
vt 0.954545 0.236191
vt 1.000000 0.157461
vt 0.863636 0.078731
vt 0.932126 0.039899
vt 0.363637 0.078731
vt 0.158784 0.039899
vt 0.227273 0.078731
vn 0.0084 -0.9999 -0.0058
vn -0.0025 -1.0000 -0.0046
vn -0.4432 -0.2871 -0.8492
vn 0.9270 -0.0263 0.3741
vn -0.4926 0.0120 0.8702
vn -0.0070 0.0693 -0.9976
vn 0.7093 0.2538 -0.6576
vn -0.0990 0.6551 0.7490
vn -0.2968 0.6737 0.6768
vn -0.5888 0.6866 -0.4264
vn 0.1810 0.6740 -0.7162
vn 0.5971 0.7305 -0.3314
vn 0.7755 0.5751 -0.2606
vn -0.3016 0.8554 -0.4210
vn -0.0096 0.9999 0.0084
vn -0.1915 0.7081 0.6797
vn 0.4693 0.8297 -0.3023
vn 0.6466 0.4269 -0.6322
vn 0.1644 0.5619 -0.8107
vn -0.0144 0.3916 -0.9200
vn -0.5833 0.6933 -0.4233
vn -0.1412 0.7960 0.5886
vn -0.2029 0.8885 0.4116
vn -0.1516 0.7750 0.6135
vn 0.9046 0.2582 0.3392
vn 0.1996 -0.1689 -0.9652
vn -0.5974 0.6683 -0.4434
vn -0.8834 0.1224 -0.4523
vn -0.9561 -0.2485 -0.1551
vn -0.4526 0.6970 0.5562
vn -0.7709 0.0247 0.6365
vn -0.5843 -0.1504 0.7974
vn -0.0954 0.9179 0.3852
vn 0.1625 0.1870 0.9688
vn 0.6654 -0.4081 0.6251
vn 0.9091 -0.2168 -0.3558
vn -0.0072 -1.0000 -0.0011
vn 0.0000 -1.0000 -0.0000
vn 0.0510 -0.9987 0.0077
vn 0.0500 -0.9985 0.0237
usemtl None
s off
f 8/1/1 13/2/1 1/3/1
f 8/4/2 1/5/2 11/6/2
f 1/3/3 13/2/3 19/7/3
f 10/8/4 15/9/4 17/10/4
f 9/11/5 16/12/5 18/13/5
f 1/3/6 19/7/6 21/14/6
f 14/15/7 21/14/7 15/9/7
f 2/16/8 6/17/8 22/18/8
f 3/19/9 2/16/9 23/20/9
f 4/21/10 3/22/10 23/23/10
f 5/24/11 4/21/11 7/25/11
f 6/17/12 5/24/12 22/26/12
f 22/26/13 5/24/13 7/27/13
f 7/25/14 4/21/14 23/28/14
f 23/20/15 22/29/15 7/30/15
f 23/20/16 2/16/16 22/29/16
f 15/9/17 5/24/17 6/17/17
f 15/9/18 21/14/18 5/24/18
f 21/14/19 4/21/19 5/24/19
f 21/14/20 19/7/20 4/21/20
f 20/31/21 3/22/21 4/21/21
f 18/13/22 2/16/22 3/19/22
f 18/13/23 16/12/23 2/16/23
f 17/10/24 6/17/24 2/16/24
f 17/10/25 15/9/25 6/17/25
f 14/15/26 1/3/26 21/14/26
f 19/7/27 20/31/27 4/21/27
f 19/7/28 13/2/28 20/31/28
f 13/2/29 12/32/29 20/31/29
f 20/31/30 18/33/30 3/22/30
f 20/31/31 12/32/31 18/33/31
f 12/32/32 9/34/32 18/33/32
f 16/12/33 17/10/33 2/16/33
f 16/12/34 9/11/34 17/10/34
f 9/11/35 10/8/35 17/10/35
f 10/8/36 14/15/36 15/9/36
f 11/6/37 1/5/37 14/15/37
f 13/35/38 8/36/38 12/32/38
f 8/36/38 9/34/38 12/32/38
f 10/8/39 11/37/39 14/15/39
f 8/38/38 11/39/38 9/11/38
f 11/39/40 10/8/40 9/11/40
